<svg id="Layer_1" data-name="Layer 1" xmlns="http://www.w3.org/2000/svg" viewBox="0 0 420.584 330.944"><defs><style>.cls-1{fill:#d6d1f2;}.cls-2{fill:#090e3f;}.cls-3{fill:#ff9e10;}.cls-4{fill:#ffc33e;}.cls-5{fill:#2aacf4;}.cls-6{fill:#7d57c9;}.cls-7{fill:#6648af;}.cls-8{fill:#252849;}.cls-9{fill:#ff7900;}.cls-10{fill:#e23d69;opacity:0.31;}.cls-11{fill:#fff;}.cls-12,.cls-15{fill:#242c6b;}.cls-13{fill:#0894c4;}.cls-14{fill:#cda4fc;}.cls-15{font-size:15.1416px;font-family:OpenSans-Bold, Open Sans;font-weight:700;}.cls-16{fill:none;stroke:#090e3f;stroke-miterlimit:10;}.cls-17{fill:#a158ed;}.cls-18{fill:#8d3fd0;}</style></defs><title>here</title><path class="cls-1" d="M365.98,228.6146a136.4247,136.4247,0,0,1-62.3095,114.76v.0089c-.4753.3056-.9595.6112-1.4438.9168q-2.65,1.6718-5.39,3.2359c-1.8474,1.0517-3.7307,2.0587-5.6321,3.0208A135.4882,135.4882,0,0,1,258.42,362.2194,136.55,136.55,0,1,1,243.8947,92.9655c.4218.0444.8436.0888,1.2564.1333,1.0051.1156,2.01.2492,3.0064.3827a135.63,135.63,0,0,1,22.528,5.0649q2.9487.939,5.8256,1.986c.88.3311,1.75.6622,2.6213.9934l.0539.0269A136.5947,136.5947,0,0,1,365.98,228.6146Z" transform="translate(-37.2872 -86.1848)"/><path class="cls-2" d="M314.5231,160.9954a52.5186,52.5186,0,0,1-4.99,18.73,1.7158,1.7158,0,0,1-.27,1.51c-.7,1.05-1.43,2.09-2.17,3.12a64.6353,64.6353,0,0,1-10.66,13.62,1.8429,1.8429,0,0,1-1.65.54c-.74.69-1.48,1.37-2.23,2.03-11.4,10-25.41,16.99-40.64,18.33a59.1711,59.1711,0,0,1-26.28-3.6c.22,2.15.46,4.29.67,6.43.58,5.92.83,12.37-2.51,17.29a14.93,14.93,0,0,1-4.98,4.54,25.4783,25.4783,0,0,1-10.04,3.1,39.1686,39.1686,0,0,1-5.08.21,36.4535,36.4535,0,0,1-6.59-.75c-.44-.09-.88-.19-1.31-.29-3.72-.91-7.41-2.48-10.01-5.3a15.116,15.116,0,0,1-3.47-12.84,19.1928,19.1928,0,0,1,7.22-11.42,21.6646,21.6646,0,0,1-16.5-16.94,24.9934,24.9934,0,0,1,.63-10.97,38.2389,38.2389,0,0,1,2.97-7.58,31.92,31.92,0,0,1,6.87-9.24c4.21-3.75,9.59-5.85,14.93-7.64,5.33-1.79,10.81-3.38,15.62-6.3a23.8584,23.8584,0,0,0,7.46-6.99c.59-1.46,1.17-2.92,1.76-4.36a55.9355,55.9355,0,0,1,11.1-17.78,49.952,49.952,0,0,1,32.92-15.4,46.4487,46.4487,0,0,1,33.12,12.11A43.9451,43.9451,0,0,1,314.5231,160.9954Z" transform="translate(-37.2872 -86.1848)"/><path class="cls-3" d="M331.1231,247.8162c.3144.2958.6378.69.5306,1.1032a.6969.6969,0,0,1-.3047.4221,130.1634,130.1634,0,0,0-17.4019-2.7191,46.1129,46.1129,0,0,0-17.2985,1.8034,114.1981,114.1981,0,0,1,10.78-5.2963l.27.6189a88.8065,88.8065,0,0,1,11.6653.1137C323.5639,244.19,328.0334,244.948,331.1231,247.8162Z" transform="translate(-37.2872 -86.1848)"/><path class="cls-4" d="M312.9749,252.3932q-7.24,1.138-14.4894,2.2761l.0361.2243a143.0967,143.0967,0,0,1,23.6114,2.7844,5.3813,5.3813,0,0,1-2.0359.9623c-3.6961.8741-21.5759,4.6074-34.1445,7.4288-3.9743.8835-7.4192,1.6856-9.7157,2.2712a66.547,66.547,0,0,0-10.3247-14.0864,17.3369,17.3369,0,0,0-2.4968-2.2317A54.6776,54.6776,0,0,1,289.73,230.89c.314-.117.6279-.234.9508-.3509h.009a22.4267,22.4267,0,0,1,6.235-1.3614,14.495,14.495,0,0,1,1.9742.0429c.3769.0265.8077.1248.9516.4656a.9062.9062,0,0,1,.01.5563,5.8443,5.8443,0,0,1-1.9084,2.7837c-1.6584,1.59-3.3977,3.0992-5.128,4.6q-3.3082,2.87-6.6164,5.7317l.027.0359a142.03,142.03,0,0,1,31.0442-20.6343,2.7926,2.7926,0,0,1-.1969.5027,11.7165,11.7165,0,0,1-3.5316,3.7454q-5.9042,4.6229-11.8982,9.12-4.5727,3.45-9.1995,6.82l.1259.2781a108.6733,108.6733,0,0,1,26.7856-8.2828,36.4432,36.4432,0,0,1,7.1061-.6713c.1705.0088.3859.0445.4309.2149v.018l.2333-.0092a2.5287,2.5287,0,0,1-.9133,1.8943,6.8122,6.8122,0,0,1-2.7267,1.1693A115.6749,115.6749,0,0,0,307.429,243.13a114.1981,114.1981,0,0,0-10.78,5.2963,46.1129,46.1129,0,0,1,17.2985-1.8034,130.1634,130.1634,0,0,1,17.4019,2.7191,2.1335,2.1335,0,0,1-.906.306Q321.7089,251.0158,312.9749,252.3932Z" transform="translate(-37.2872 -86.1848)"/><path class="cls-3" d="M327.1343,234.4951l-.2333.0092v-.018c-.045-.17-.26-.2061-.4309-.2149a36.4432,36.4432,0,0,0-7.1061.6713,108.6733,108.6733,0,0,0-26.7856,8.2828l-.1259-.2781q4.6268-3.37,9.2-6.82l.27.3587a93.9263,93.9263,0,0,1,13.15-4.2309c3.6692-.8921,7.8232-1.48,10.9659.608a2.7175,2.7175,0,0,1,.8893.8605A1.6814,1.6814,0,0,1,327.1343,234.4951Z" transform="translate(-37.2872 -86.1848)"/><path class="cls-3" d="M322.8756,255.56c.4047.7892-.0163,1.5434-.7426,2.1184a143.0967,143.0967,0,0,0-23.6114-2.7844l-.0361-.2243q7.24-1.138,14.4894-2.2761a33.6628,33.6628,0,0,1,8.4549,2.0821A2.6913,2.6913,0,0,1,322.8756,255.56Z" transform="translate(-37.2872 -86.1848)"/><path class="cls-4" d="M302.3424,156.6507h.009a12,12,0,0,1,3.3045,2.3117,33.5476,33.5476,0,0,1,5.2646,6.1144l.3141,0a34.1341,34.1341,0,0,0-1.32-9.51.2242.2242,0,0,1,.0629.0358,16.422,16.422,0,0,1,5.7862,7.2714,24.4074,24.4074,0,0,1,1.7833,6.4948,23.5549,23.5549,0,0,1-.1356,7.735,30.5211,30.5211,0,0,1-3.2757,8.3306,86.3049,86.3049,0,0,1-12.7506,17.9325c-3.5136,3.8173-7.4671,7.4285-9.58,12.1686v.0089c-.2065-.0626-.4039-.1252-.61-.1878q5.1963-12.4287,9.7282-25.1439c.26-.44.5016-.88.7344-1.3288-.0628-.0538-.1257-.1166-.1886-.1793a47.3616,47.3616,0,0,1-10.1708-12.8034,6.931,6.931,0,0,1-1.1529-4.2521,2.549,2.549,0,0,1,1.2095-1.8767,2.9,2.9,0,0,1,2.782.3113,9.2177,9.2177,0,0,1,.9787.645,36.4663,36.4663,0,0,1,8.6955,9.18l.0808-.009a30.5689,30.5689,0,0,0-9.0978-16.51l.1075-.1078c1.0041-.88,2.5929-.4155,3.76.2384.1167.0627.2334.1344.3412.206,3.25,1.917,5.7568,4.8666,8.1915,7.7625l.2512-.0451a30.3915,30.3915,0,0,0-6.9608-15.1487A4.2376,4.2376,0,0,1,302.3424,156.6507Z" transform="translate(-37.2872 -86.1848)"/><path class="cls-3" d="M316.9092,221.2431a1.3011,1.3011,0,0,1,.37,1.5161,142.03,142.03,0,0,0-31.0442,20.6343l-.027-.0359q3.3083-2.87,6.6164-5.7317c1.73-1.5,3.47-3.01,5.128-4.6a5.8443,5.8443,0,0,0,1.9084-2.7837.9062.9062,0,0,0-.01-.5563c-.1439-.3408-.5747-.4391-.9516-.4656a14.495,14.495,0,0,0-1.9742-.0429c2.5557-1.6267,5.2642-3.0563,7.9368-4.4319,3.5246-1.8072,7.22-3.6326,11.1769-3.6725A1.6853,1.6853,0,0,1,316.9092,221.2431Z" transform="translate(-37.2872 -86.1848)"/><path class="cls-3" d="M306.8535,154.2592a8.1216,8.1216,0,0,1,3.0612,1.307,34.1341,34.1341,0,0,1,1.32,9.51l-.3141,0a33.5476,33.5476,0,0,0-5.2646-6.1144,12,12,0,0,0-3.3045-2.3117h-.009a3.6829,3.6829,0,0,1,3.3445-2.4621A4.59,4.59,0,0,1,306.8535,154.2592Z" transform="translate(-37.2872 -86.1848)"/><path class="cls-3" d="M307.4454,171.4424l-.2512.0451c-2.4347-2.8959-4.9413-5.8455-8.1915-7.7625l.2418-.404a7.3344,7.3344,0,0,1-.9383-4.9792,2.94,2.94,0,0,1,.43-1.1939,2.1472,2.1472,0,0,1,1.7489-.8542A30.3915,30.3915,0,0,1,307.4454,171.4424Z" transform="translate(-37.2872 -86.1848)"/><path class="cls-5" d="M304.51,336.9387a1.99,1.99,0,0,1,.5131,1.5788,1.9093,1.9093,0,0,1-1.0847,1.042,123.7867,123.7867,0,0,1-34.92,12.6072,4.8762,4.8762,0,0,1-2.9971-.0508c-1.1671-.5372-1.7248-1.8647-2.1657-3.0756a162.8783,162.8783,0,0,1-6.8815-25.3334,21.4307,21.4307,0,0,0,6.1125-7.0861l.0808.0448c7.6079-1.4256,13.1375-8.17,16.3247-15.2263a62.8415,62.8415,0,0,0,4.4446-14.7656A127.79,127.79,0,0,0,304.51,336.9387Z" transform="translate(-37.2872 -86.1848)"/><path class="cls-3" d="M293.8632,165.92a6.1812,6.1812,0,0,1,.259-1.2745,3.16,3.16,0,0,1,.6717-1.2569,30.5689,30.5689,0,0,1,9.0978,16.51l-.0808.009a36.4663,36.4663,0,0,0-8.6955-9.18,9.2177,9.2177,0,0,0-.9787-.645l.4576-.0364A7.218,7.218,0,0,1,293.8632,165.92Z" transform="translate(-37.2872 -86.1848)"/><path class="cls-4" d="M301.4689,188.704c.0629.0627.1258.1255.1886.1793-.2328.4489-.4746.8888-.7344,1.3288C301.111,189.7094,301.29,189.2067,301.4689,188.704Z" transform="translate(-37.2872 -86.1848)"/><path class="cls-4" d="M296.7931,197.1254a1.4724,1.4724,0,0,1-.55.41,87.2856,87.2856,0,0,1-14.66,16.05c-1.48,1.28-3,2.49-4.56,3.65a25.7077,25.7077,0,0,1-6.61,3.81,18.9681,18.9681,0,0,1-6.48.95c-.55-.01-1.1-.03-1.63-.09a25.2477,25.2477,0,0,1-6.7-1.46,25.57,25.57,0,0,1-16.83-26.86l-.08-.01a12.8475,12.8475,0,0,1-.85,2.88,55.2808,55.2808,0,0,0-2.49,13.04,38.8807,38.8807,0,0,1-3.72-11.3c-.96-5.3-1.2-10.7-1.74-16.07a24.1171,24.1171,0,0,1,6.32-7.06,18.4061,18.4061,0,0,1-1.99-10.02,13.3275,13.3275,0,0,1,2.87-7.46,8.6172,8.6172,0,0,1,7.15-3.15,6.6683,6.6683,0,0,1,4.96,3.08,52.8222,52.8222,0,0,0,33.1-12.13,2.1387,2.1387,0,0,1,.86-.44C283.7431,144.4354,301.9431,190.5754,296.7931,197.1254Z" transform="translate(-37.2872 -86.1848)"/><path class="cls-6" d="M294.631,217.3992c-.5272,2.1272-2.7361,9.5324-3.9527,13.1409-.3229.117-.6369.234-.9508.3509a54.6771,54.6771,0,0,0-26.3148,21.132,17.3428,17.3428,0,0,1,2.4968,2.2317,66.55,66.55,0,0,1,10.3246,14.0864c2.2966-.5856,5.7415-1.3877,9.7157-2.2712a162.7955,162.7955,0,0,1-2.0158,20.6047,62.8407,62.8407,0,0,1-4.4446,14.7655,36.4,36.4,0,0,1-3.4216,6.0156,25.0951,25.0951,0,0,1-1.5862,2.0564c-2.9934,3.5654-6.7863,6.3062-11.3169,7.1543l-.0808-.0448a21.43,21.43,0,0,1-6.1125,7.0861,15.2907,15.2907,0,0,1-6.7988,2.8336,9.4929,9.4929,0,0,1-1.5256,17.41,7.3939,7.3939,0,0,1,5.9443,3.8883c1.0163,2.26-.0125,5.4109-2.39,6.1042a35.9223,35.9223,0,0,1,6.218,8.276A136.8086,136.8086,0,0,1,129.92,322.2473q-3.4478-3.6667-6.6234-7.5824c.5555-.8261,12.7382-29.9028,12.89-30.2888,3.825-9.7013,10.92-20.71,8.0633-30.8785-3.9043-13.8989-6.9424-37.4425,3.3231-49.5744,9.3465-11.0459,16.4712-10.6468,20.1307-11.118,2.5487-.3281,5.255-1.7391,5.8961-4.2277-2.5927,9.3883.65,19.3472,8.9237,24.7459a20.4951,20.4951,0,0,0,7.0021,2.9271,19.192,19.192,0,0,0-7.2117,11.4123,15.1052,15.1052,0,0,0,3.4678,12.8462c2.5961,2.8149,6.2858,4.39,10.0106,5.2929.4308.1072.8706.2055,1.31.2948a35.9777,35.9777,0,0,0,4.38.6236c.7358.0711,1.4717.1062,2.2075.1234a38.4063,38.4063,0,0,0,5.0786-.2116,25.41,25.41,0,0,0,10.0379-3.0971,30.42,30.42,0,0,0,9.1043,5.3118,30.8114,30.8114,0,0,0,17.3825,1.2834q.4844-.1082.9688-.2432c3.5973-.9459,7.0771-2.7172,9.2186-5.7254,2.1684-3.0442,2.6759-6.9839,2.2593-10.7343-.0453-.4038-.1-.8075-.1628-1.2023a6.14,6.14,0,0,0,4.7184-10.3151c.5384.0533,1.0858.08,1.6332.0881a19.255,19.255,0,0,0,6.0292-.8048c.1525-.045.296-.09.4485-.144a15.9923,15.9923,0,0,0,2.09-.9084,29.6555,29.6555,0,0,0,4.0354-2.5526l.4842-.35c.5649-.4133,1.1208-.8357,1.6677-1.2759.9863-.7637,1.9456-1.5544,2.8959-2.3719a45.3625,45.3625,0,0,1,9.6122,1.7668c.2064.0626.4039.1253.61.1879.7629.2415,1.5169.5009,2.2709.7783a.9591.9591,0,0,1,.5568.3853A.92.92,0,0,1,294.631,217.3992Z" transform="translate(-37.2872 -86.1848)"/><path class="cls-7" d="M291.1949,215.356c.2065.0626.4039.1252.61.1878.763.2415,1.517.501,2.271.7784a.9587.9587,0,0,1,.5567.3853.92.92,0,0,1,.0007.6909c-.5272,2.1272-2.736,9.5324-3.9437,13.1409h-.009c-.3229.1169-.6368.2339-.9508.3509a54.6776,54.6776,0,0,0-26.3148,21.132,6.9977,6.9977,0,0,0-2.6124-1.2,169.6011,169.6011,0,0,0-1.4178-17.5681l-1.642.1721c-.0452-.4037-.0995-.8074-.1627-1.2022a6.14,6.14,0,0,0,4.7183-10.3151c.5385.0533,1.0859.08,1.6332.0881a19.06,19.06,0,0,0,6.4777-.9488,25.7481,25.7481,0,0,0,6.6094-3.8114q2.34-1.7388,4.5637-3.6478A45.3616,45.3616,0,0,1,291.1949,215.356Z" transform="translate(-37.2872 -86.1848)"/><path class="cls-3" d="M281.5828,213.5892a87.6029,87.6029,0,0,0,19.34-23.3771q-4.5364,12.6972-9.7282,25.1439A45.3616,45.3616,0,0,0,281.5828,213.5892Z" transform="translate(-37.2872 -86.1848)"/><path class="cls-7" d="M285.9526,266.0691a162.7923,162.7923,0,0,1-2.0159,20.6046c-.928,5.08-2.33,15.7575-4.4694,20.4706-3.1873,7.0562-8.692,8.0957-16.3,9.5213l-.0808-.0448a24.6578,24.6578,0,0,0,1.88-4.4078c1.8961-6.05,1.7639-12.5015,1.3716-18.8721q6.4558-4.6636,12.5884-9.74a5.3412,5.3412,0,0,0,2.1059-2.7748,5.1755,5.1755,0,0,0-.4155-2.6826,66.5442,66.5442,0,0,0-4.38-9.8033C278.5334,267.7547,281.9783,266.9526,285.9526,266.0691Z" transform="translate(-37.2872 -86.1848)"/><path class="cls-8" d="M268.6926,199.7433a.3871.3871,0,0,1,.0528-.0494c.18-.172.3652-.3265.5585-.4831a1.8132,1.8132,0,0,0,.1626-.1309,6.6861,6.6861,0,0,1,4.3509-1.4853,5.16,5.16,0,0,1,4.9056,4.2671,6.986,6.986,0,0,1-1.5169,4.6028,17.395,17.395,0,0,1-5.8918,5.3652,7.5182,7.5182,0,0,0,.2481-3.6927,6.9617,6.9617,0,0,0-1.0035-2.2058,16.7451,16.7451,0,0,0-2.1509-2.7263,3.33,3.33,0,0,0-1.776-1.1092l-.0216-.0133A14.4791,14.4791,0,0,1,268.6926,199.7433Z" transform="translate(-37.2872 -86.1848)"/><path class="cls-9" d="M270.5589,205.9312a6.9617,6.9617,0,0,1,1.0035,2.2058,7.5182,7.5182,0,0,1-.2481,3.6927c-.1709.0959-.3331.19-.506.277a5.5386,5.5386,0,0,1-3.6742.762,4.11,4.11,0,0,1-2.88-3.2726,7.9272,7.9272,0,0,1,.66-4.4822,14.7945,14.7945,0,0,1,1.6964-3.0315l.0216.0133a3.33,3.33,0,0,1,1.776,1.1092A16.7451,16.7451,0,0,1,270.5589,205.9312Z" transform="translate(-37.2872 -86.1848)"/><path class="cls-5" d="M235.3575,209.4908a24.5672,24.5672,0,0,0,3.6844,5.2635c4.1592,4.5,10.6137,7.2037,16.5524,5.708l.009-.0179a25.6123,25.6123,0,0,0,6.6955,1.4647,6.14,6.14,0,0,1-4.7183,10.3151c.0632.3948.1175.7985.1627,1.2022.4166,3.75-.0908,7.69-2.2592,10.7343-2.33,3.2777-6.2581,5.0853-10.1875,5.9687a31.0877,31.0877,0,0,1-26.4868-6.5952,14.9912,14.9912,0,0,0,4.9845-4.5365c3.342-4.9208,3.0931-11.3723,2.5128-17.294-.8342-8.443-2.0991-16.9394-1.0938-25.3662a36.0177,36.0177,0,0,1,4.6785-14.21c.5439,5.3655.7827,10.7671,1.7393,16.0693A38.8685,38.8685,0,0,0,235.3575,209.4908Z" transform="translate(-37.2872 -86.1848)"/><path class="cls-3" d="M255.6033,220.4444l-.009.0179c-5.9387,1.4957-12.3932-1.2077-16.5524-5.708a24.5672,24.5672,0,0,1-3.6844-5.2635,54.6918,54.6918,0,0,1,2.49-13.0317,12.7423,12.7423,0,0,0,.84-2.8812l.0808.0089a25.5735,25.5735,0,0,0,16.8343,26.8576Z" transform="translate(-37.2872 -86.1848)"/><path class="cls-7" d="M212.6939,273.6547l.027.0627a44.5577,44.5577,0,0,0-7.2464,3.9377,9.97,9.97,0,0,0-.5518-4.3066,3.4813,3.4813,0,0,0-3.43-2.2128c-1.31.19-2.233,1.3393-3.0215,2.3989q-2.5674,3.4215-5.1167,6.8518c.7337-2.0377-2.1665-3.8383-4.1667-3.0018-1.9912.8366-2.9849,3.054-3.6738,5.1006a55.63,55.63,0,0,0-2.0377,7.9793,67.98,67.98,0,0,1,13.63-44.3686,36.854,36.854,0,0,0,6.5871.747A151.1563,151.1563,0,0,1,212.6939,273.6547Z" transform="translate(-37.2872 -86.1848)"/><path class="cls-7" d="M264.8175,293.8775q-13.1573,8.3814-27.0261,15.5636-6.9282,3.5823-14.0137,6.8485a116.4335,116.4335,0,0,1-14.2214,5.8051c-4.8525,1.5-10.0494,2.3735-15.0967,1.3931a26.524,26.524,0,0,1-12.201-6.2748,55.5841,55.5841,0,0,1-9.546-11.46c-2.8708-4.3328-5.58-8.7794-8.2363-13.2465q-9.0492-15.2206-16.77-31.1775c-.5034-1.0391-2.05-.1285-1.5487.9074q7.0686,14.5918,15.2533,28.6049,4.0727,6.9642,8.4174,13.7669a70.8547,70.8547,0,0,0,9.2622,12.1009,31.7557,31.7557,0,0,0,11.4259,7.5481,27.5214,27.5214,0,0,0,14.551.8208,68.0364,68.0364,0,0,0,14.634-4.99q7.3242-3.2267,14.4867-6.8072a346.4658,346.4658,0,0,0,31.5369-17.8542C266.6962,294.8074,265.7954,293.2545,264.8175,293.8775Z" transform="translate(-37.2872 -86.1848)"/><path class="cls-7" d="M259.0271,250.9162A220.88,220.88,0,0,0,213.222,272.37c-.981.6056-.0791,2.1576.9074,1.5487a218.7844,218.7844,0,0,1,45.3766-21.2721C260.5956,252.281,260.1266,250.5477,259.0271,250.9162Z" transform="translate(-37.2872 -86.1848)"/><path class="cls-7" d="M262.7741,255.0869q-4.1134,2.3414-8.0167,5.0254a.92.92,0,0,0-.3207,1.228.9056.9056,0,0,0,1.2281.3207q3.9-2.6818,8.0167-5.0254A.898.898,0,0,0,262.7741,255.0869Z" transform="translate(-37.2872 -86.1848)"/><path class="cls-7" d="M265.48,260.2587a55.281,55.281,0,0,1-7.1087,5.6252.9184.9184,0,0,0-.3207,1.2281.9064.9064,0,0,0,1.2281.3206,58.1569,58.1569,0,0,0,7.4715-5.9062C267.5966,260.7365,266.3241,259.4708,265.48,260.2587Z" transform="translate(-37.2872 -86.1848)"/><path class="cls-7" d="M270.8925,266.6261a35.4465,35.4465,0,0,1-6.7366,5.2485.898.898,0,0,0,.9074,1.5487,37.4612,37.4612,0,0,0,7.0995-5.5294A.8979.8979,0,0,0,270.8925,266.6261Z" transform="translate(-37.2872 -86.1848)"/><path class="cls-7" d="M276.1137,272.2729a.9235.9235,0,0,0-1.2274.3232c-.1754.2366-.2936.3895-.5165.66q-.2934.3553-.6033.6968-.636.7006-1.3368,1.3383a17.9032,17.9032,0,0,1-2.9271,2.1732.8975.8975,0,1,0,.9074,1.5487,21.058,21.058,0,0,0,6.0269-5.5124A.9.9,0,0,0,276.1137,272.2729Z" transform="translate(-37.2872 -86.1848)"/><path class="cls-7" d="M280.5361,279.3306a.9176.9176,0,0,0-1.2691.0013q-2.9148,2.4063-5.83,4.8125a.9039.9039,0,0,0,.0013,1.269.9176.9176,0,0,0,1.2691-.0013q2.9146-2.4063,5.83-4.8125A.904.904,0,0,0,280.5361,279.3306Z" transform="translate(-37.2872 -86.1848)"/><path class="cls-7" d="M163.7558,214.0589a3.064,3.064,0,0,0-.9487-1.7784,17.2281,17.2281,0,0,0-1.6544-1.6316,18.7992,18.7992,0,0,0-3.8539-2.5756c-1.03-.5169-1.9377,1.0317-.9043,1.5506a17.2563,17.2563,0,0,1,2.9534,1.85,16.8174,16.8174,0,0,1,1.3916,1.2332,5.38,5.38,0,0,1,1.1245,1.2507c.1085.2278.14.2261-.1093.3787a2.0443,2.0443,0,0,1-.7758.2231,6.3963,6.3963,0,0,1-1.628-.0708,10.65,10.65,0,0,0-3.4521-.109.902.902,0,0,0-.3945,1.5,27.18,27.18,0,0,1,3.5961,3.5012c.2862.337.5649.68.8315,1.033.1055.14.2.3024.3145.4375a11.4578,11.4578,0,0,1-1.7189-.4756,34.8677,34.8677,0,0,1-9.1-4.9855c-.9216-.6961-1.8152.8625-.9042,1.5506a35.8474,35.8474,0,0,0,5.6045,3.4844c.9456.4715,1.9132.8989,2.8947,1.29a13.7217,13.7217,0,0,0,2.8015.9388,2.0208,2.0208,0,0,0,2.1518-.751c.5836-.965-.1361-1.9322-.7132-2.6821a27.716,27.716,0,0,0-2.7607-3.0668,11.7726,11.7726,0,0,0,2.2648.2147C162.0905,216.3037,163.8467,215.6632,163.7558,214.0589Z" transform="translate(-37.2872 -86.1848)"/><path class="cls-7" d="M246.8132,324.9063q-9.6072.77-19.1468,2.1723c-.6124.09-.7656.8623-.535,1.3187.5791,1.1458,1.935,1.3827,3.062,1.6923q2.2614.6214,4.5454,1.1573t4.5858.9848a20.1906,20.1906,0,0,1,2.9747.6651c-2.4714,1.2518-5.7608,1.5694-7.2318,4.0867-1.0058,1.7211,1.2729,2.66,2.5525,3.0337a18.2936,18.2936,0,0,0,6.0559.3887c1.1495-.0579,1.1545-1.8529-.0018-1.7946a19.5065,19.5065,0,0,1-4.8236-.139,5.0621,5.0621,0,0,1-2.1075-.7418l.0341-.0445q.1688-.19.3553-.3634a5.0973,5.0973,0,0,1,.7184-.5456c2.17-1.39,4.7991-1.7183,6.87-3.3232.5075-.3934.218-1.1058-.1831-1.4092a8.1406,8.1406,0,0,0-3.5214-1.3126c-1.4693-.2784-2.9354-.57-4.3952-.8947q-2.1132-.47-4.2094-1.0133c-.4962-.1287-.9907-.2641-1.4853-.3989q7.9193-1.0789,15.8886-1.7241C247.9586,326.6093,247.9665,324.8139,246.8132,324.9063Z" transform="translate(-37.2872 -86.1848)"/><path class="cls-7" d="M145.661,305.8382a34.4952,34.4952,0,0,0-10.3129-7.9319c-1.0231-.5332-1.93,1.016-.9043,1.5506a35.65,35.65,0,0,1,8.3742,6.019,13.2345,13.2345,0,0,1,1.69,1.7852,1.22,1.22,0,0,1,.24.441c.0143.1925.1111.0615-.0245.1378a3.384,3.384,0,0,1-1.2924.0367,22.6057,22.6057,0,0,1-5.7431-.84c-.8289-.23-1.5638.8954-.8716,1.5007a38.2257,38.2257,0,0,1,3.4473,3.0637c.2522.2822.8679,1.0028.3229,1.2685-.4467.2178-1.1651-.0634-1.5939-.2007a20.2581,20.2581,0,0,1-7.4083-4.3151c-.8533-.7752-2.1248.4917-1.2676,1.27a22.48,22.48,0,0,0,4.7242,3.3223,12.3985,12.3985,0,0,0,5.1486,1.77,2.2214,2.2214,0,0,0,2.128-3.27,6.4592,6.4592,0,0,0-1.6969-1.9617l-.0157-.0138a20.4967,20.4967,0,0,0,3.8147.1928,2.0108,2.0108,0,0,0,2.1174-1.4074A2.9377,2.9377,0,0,0,145.661,305.8382Z" transform="translate(-37.2872 -86.1848)"/><path class="cls-2" d="M271.1779,169.8069a.9183.9183,0,0,0-1.1044-.6256.906.906,0,0,0-.6256,1.1044,30.0923,30.0923,0,0,1,1.4434,6.6927l-6.25-.977a.9255.9255,0,0,0-1.1032.6278.9043.9043,0,0,0,.6279,1.1032l7.4885,1.1706a.91.91,0,0,0,1.1349-.8664A31.788,31.788,0,0,0,271.1779,169.8069Z" transform="translate(-37.2872 -86.1848)"/><path class="cls-2" d="M295.5505,187.8963a20.3414,20.3414,0,0,1-1.7688-1.566q-.4111-.41-.7981-.8431c-.0659-.0738-.13-.1494-.1944-.2241l.0891-.0553.848-.5254a.8975.8975,0,0,0-.9074-1.5487l-.8865.5493a5.7626,5.7626,0,0,0-.9418.6229,1.0954,1.0954,0,0,0-.1372,1.4146,9.4353,9.4353,0,0,0,.6979.8505,20.2045,20.2045,0,0,0,2.7316,2.5956.9208.9208,0,0,0,1.2689-.0013A.9066.9066,0,0,0,295.5505,187.8963Z" transform="translate(-37.2872 -86.1848)"/><path class="cls-3" d="M301.7327,189.0826a34.9109,34.9109,0,0,1-6.044-8.4575,33.5014,33.5014,0,0,1-1.9822-4.7792c-.497-1.52-1.0314-3.3081.0311-4.703.7-.9185-.8592-1.8118-1.55-.9043a5.685,5.685,0,0,0-.5552,4.9288,30.5114,30.5114,0,0,0,2.0867,5.508,36.4479,36.4479,0,0,0,6.7464,9.6775C301.27,191.1845,302.5365,189.9133,301.7327,189.0826Z" transform="translate(-37.2872 -86.1848)"/><path class="cls-2" d="M276.6631,162.0509a26.0844,26.0844,0,0,0-9.0471-1.6861,2.7793,2.7793,0,0,0-3,2.3452,2.71,2.71,0,0,0,2.3451,3,21.96,21.96,0,0,1,7.6952,1.3387C277.8957,168.2513,279.9239,163.2617,276.6631,162.0509Z" transform="translate(-37.2872 -86.1848)"/><path class="cls-10" d="M284.7214,182.601c-3.5577-1.5725-8.5489-2.5662-12.4725-.8773a2.8218,2.8218,0,0,0-1.7932,3.6765,6.4427,6.4427,0,0,0,.896,1.3169c1.8255,2.2971,5.2631,1.5758,8.0527,2.0648,2.8493.4995,4.0437,2.9516,6.8669,3.3052a3.5716,3.5716,0,0,0,2.9445-1.2112C292.0752,187.5832,287.8378,183.9785,284.7214,182.601Z" transform="translate(-37.2872 -86.1848)"/><path class="cls-11" d="M258.9223,166.6709c.1507-.5568-.7322-.7189-.8825-.1635-.4441,1.64-.96,4.0041-2.8663,4.54a1.8616,1.8616,0,0,1-2.0507-.6074,2.7953,2.7953,0,0,1-.1645-2.3361c.56-1.9059,2.1616-2.8294,3.605-4.0071a4.6683,4.6683,0,0,0,2.0834-3.9719c-.064-.5724-.9592-.5073-.8948.0689.1914,1.7132-1.3019,2.8888-2.5276,3.8011a7.6921,7.6921,0,0,0-3.0706,3.6967,3.4625,3.4625,0,0,0,.6123,3.6925,3.008,3.008,0,0,0,3.6515.0441C257.9835,170.3377,258.4525,168.4063,258.9223,166.6709Z" transform="translate(-37.2872 -86.1848)"/><path class="cls-11" d="M246.22,179.5719a4.2193,4.2193,0,0,1-1.9577,2.1956,1.2833,1.2833,0,0,1-1.8393-1.0868,2.3032,2.3032,0,0,1,1.3964-2.1089c.71-.39,1.74-.4611,2.1161-1.284.3071-.6714-.066-1.31-.298-1.935-.3668-.9877.2664-1.7472,1.0861-2.2478,1.3862-.8467,3.5787-1.5894,3.2746-3.6491-.0839-.5679-.98-.5045-.8948.0688.2761,1.87-2.4948,2.3714-3.5526,3.3375a2.6754,2.6754,0,0,0-.9468,1.8539,2.5787,2.5787,0,0,0,.2123.9992,2.9751,2.9751,0,0,1,.34.9643c0,.4559-.4737.5762-.8335.7043a6.4279,6.4279,0,0,0-1.08.487,3.4825,3.4825,0,0,0-1.5377,1.681,2.3263,2.3263,0,0,0,1.3768,3.16c1.908.4855,3.1606-1.3184,3.9454-2.7479C247.3049,179.4573,246.497,179.0666,246.22,179.5719Z" transform="translate(-37.2872 -86.1848)"/><path class="cls-11" d="M255.1182,176.6947a.454.454,0,0,0-.6333.0407c-.1466.1751-.2943.35-.4521.5148a2.6235,2.6235,0,0,1-.4379.389,1.47,1.47,0,0,1-.5133.2584c-.0178.0053-.0359.01-.0539.0144h-.0006c-.0445.0055-.0885.012-.1334.0147-.0386.0024-.0771.0024-.1157.0025.0865,0-.0441-.0051-.0765-.01-.0382-.0057-.0763-.0128-.114-.0214-.011-.0025-.07-.02-.0916-.0253-.0228-.01-.074-.0306-.0832-.0349-.0391-.0182-.0765-.0454-.1162-.061l-.0009,0-.0358-.0269c-.0285-.0226-.0539-.0487-.0819-.0718l-.0088-.0072-.0206-.0265c-.011-.0157-.0469-.0752-.0577-.09-.0031-.0109-.0177-.0483-.0218-.06l-.01-.0358-.0019-.0141a.8853.8853,0,0,1,.0254-.274,1.4186,1.4186,0,0,1,.0913-.2383c.055-.121.1167-.2388.1772-.3571l.8574-1.6782a.4487.4487,0,1,0-.8071-.3921q-.4427.8662-.8851,1.7323a1.95,1.95,0,0,0-.2707,1.6184,1.6093,1.6093,0,0,0,1.1035.9065,1.9826,1.9826,0,0,0,1.4815-.2131,4.8,4.8,0,0,0,1.3281-1.22A.4573.4573,0,0,0,255.1182,176.6947Z" transform="translate(-37.2872 -86.1848)"/><path class="cls-11" d="M273.2537,225.0532l-1.1481-6.9334a1.3512,1.3512,0,0,0-1.6567-.9384,1.3851,1.3851,0,0,0-.9384,1.6567q.574,3.4667,1.1481,6.9335a1.3514,1.3514,0,0,0,1.6568.9384A1.3851,1.3851,0,0,0,273.2537,225.0532Z" transform="translate(-37.2872 -86.1848)"/><path class="cls-11" d="M285.7845,224.2353l-4.2448-6.4724a1.3462,1.3462,0,0,0-2.3231,1.3611l4.2448,6.4723a1.3462,1.3462,0,0,0,2.3231-1.361Z" transform="translate(-37.2872 -86.1848)"/><path class="cls-11" d="M288.574,210.4472l-7.3395-2.4211a1.3562,1.3562,0,0,0-1.6547.9417,1.3771,1.3771,0,0,0,.9417,1.6548l7.3395,2.4211a1.3564,1.3564,0,0,0,1.6548-.9418A1.3771,1.3771,0,0,0,288.574,210.4472Z" transform="translate(-37.2872 -86.1848)"/><path class="cls-12" d="M292.9305,123.6405a46.1293,46.1293,0,0,1-13.3283,12.4582,47.6535,47.6535,0,0,1-17.7348,6.447c-6.8883,1.09-14.0622,1.21-20.6419,3.7416-5.1975,2-10.1821,5.4773-12.4126,10.7578-2.2635,5.3584-1.1241,11.2936-2.03,16.8931a12.1907,12.1907,0,0,1-3.39,7.0886,19.5243,19.5243,0,0,1-6.4863,3.6537c-4.5036,1.77-9.7172,3.4561-11.4864,8.4789-1.0328,2.9321-.5126,6.1533.35,9.0571.9649,3.25,2.43,6.321,3.4735,9.544,2.1015,6.491,2.81,13.7695-.2871,20.073a15.8094,15.8094,0,0,1-6.0915,6.787,13.5871,13.5871,0,0,1-8.4052,1.7826,11.0746,11.0746,0,0,1-4.12-1.373.5.5,0,0,0-.5047.8635c5.1812,2.957,11.8919,1.5824,16.159-2.359,4.7414-4.3794,6.4754-11.1361,5.9962-17.4047a39.5,39.5,0,0,0-2.4782-10.64,69.0236,69.0236,0,0,1-3.3044-9.5956c-.6439-3.0641-.4964-6.3618,1.5278-8.904a14.5107,14.5107,0,0,1,5.9787-3.9866c4.5669-1.9078,9.8461-3.2689,12.4322-7.9142,2.7938-5.0185,1.7284-11.1758,2.3554-16.6549a16.5165,16.5165,0,0,1,2.9494-8.0185,20.0422,20.0422,0,0,1,6.5953-5.565c6.0438-3.3274,12.9886-3.9252,19.7115-4.7436a68.9957,68.9957,0,0,0,10.4321-1.891,46.8239,46.8239,0,0,0,8.5-3.3335,47.4035,47.4035,0,0,0,14.37-11.2411c.9666-1.1211,1.8767-2.29,2.7343-3.4964C294.1676,123.62,293.3008,123.12,292.9305,123.6405Z" transform="translate(-37.2872 -86.1848)"/><path class="cls-12" d="M285.76,117.9939c-2.2182,4.6772-6.5811,7.8524-11.3568,9.5934-5.8228,2.1226-12.1212,2.0533-18.2225,1.65-6.29-.4157-12.6122-1.2-18.9118-.4769a27.2662,27.2662,0,0,0-15.0806,6.2173,25.2081,25.2081,0,0,0-7.8147,12.5832c-.7287,2.827-.7146,5.7616-1.3053,8.6106a12.23,12.23,0,0,1-3.8277,6.7207c-3.7317,3.3988-8.7047,5.0726-12.9413,7.7143a39.7288,39.7288,0,0,0-11.571,10.6593,26.9019,26.9019,0,0,0-5.0367,14.2128,22.4224,22.4224,0,0,0,3.84,13.9684,19.0514,19.0514,0,0,0,2.3207,2.688c.4643.4457,1.1724-.26.7071-.7071a20.0408,20.0408,0,0,1-5.84-13.202,25.0868,25.0868,0,0,1,3.6134-14.5148A36.4029,36.4029,0,0,1,195.3271,172.43a63.0437,63.0437,0,0,1,6.6048-3.7893,45.52,45.52,0,0,0,6.4765-3.7843,14.5662,14.5662,0,0,0,4.5373-5.1535c1.3076-2.6706,1.4339-5.6641,1.7854-8.5636a24.2672,24.2672,0,0,1,6.3592-13.7122,24.9545,24.9545,0,0,1,14.2279-7.3869c6.0934-1.0511,12.3122-.4455,18.43.0219,6.1764.472,12.5493.8491,18.5986-.7774a23.0915,23.0915,0,0,0,12.3961-7.7238,16.6943,16.6943,0,0,0,1.88-3.0621C286.8974,117.92,286.0355,117.4122,285.76,117.9939Z" transform="translate(-37.2872 -86.1848)"/><path class="cls-12" d="M318.3036,117.9176a25.2535,25.2535,0,0,0-20.92,3.2294c-.5317.3566-.0317,1.2233.5047.8634a24.271,24.271,0,0,1,20.15-3.1285A.5.5,0,0,0,318.3036,117.9176Z" transform="translate(-37.2872 -86.1848)"/><path class="cls-12" d="M317.9035,126.02a36.0535,36.0535,0,0,0-15.6436-3.8017.5.5,0,0,0,0,1,34.903,34.903,0,0,1,15.1388,3.6652C317.9728,127.17,318.48,126.3075,317.9035,126.02Z" transform="translate(-37.2872 -86.1848)"/><path class="cls-12" d="M318.7577,142.6347A27.5182,27.5182,0,0,0,308.92,130.16a44.2675,44.2675,0,0,0-7.9593-4.6061c-.5813-.265-1.09.5965-.5047.8634a38.077,38.077,0,0,1,12.5871,8.7694,22.3927,22.3927,0,0,1,6.0193,14.0366,16.8651,16.8651,0,0,1-1.8419,8.5244c-.2993.5691.5635,1.0752.8635.5047A19.4645,19.4645,0,0,0,318.7577,142.6347Z" transform="translate(-37.2872 -86.1848)"/><path class="cls-12" d="M302.37,152.9721a32.7792,32.7792,0,0,1-5.2867-23.92c.1081-.6294-.8554-.9-.9642-.2658a33.7917,33.7917,0,0,0,5.3874,24.69C301.8689,154.0037,302.7359,153.5042,302.37,152.9721Z" transform="translate(-37.2872 -86.1848)"/><path class="cls-12" d="M286.7178,115.46a53.8792,53.8792,0,0,0-20.3651-8.6087,35.518,35.518,0,0,0-19.9034,1.9581,27.7884,27.7884,0,0,0-14.064,12.4193c-3.4392,6.5273-4.0807,13.996-5.3048,21.1482-1.1259,6.5787-2.8917,13.5837-7.6559,18.5352-4.22,4.3865-10.1277,6.2271-15.94,7.3916-6.0008,1.2023-12.1781,1.775-17.9811,3.8175a26.8291,26.8291,0,0,0-7.805,4.1631,23.6142,23.6142,0,0,0-7.764,25.2463,24.05,24.05,0,0,0,11.6477,13.67,22.5918,22.5918,0,0,0,4.1313,1.6425.5.5,0,0,0,.2658-.9643,22.8033,22.8033,0,0,1-13.6512-11.26,21.7656,21.7656,0,0,1-.9844-17.9,22.2547,22.2547,0,0,1,12.3529-12.8247c5.47-2.3846,11.507-3.09,17.3323-4.1178,5.62-.9914,11.4535-2.2627,16.1781-5.6438,5.3334-3.8167,8.14-9.8065,9.7047-16.0138,1.7127-6.7932,2.0235-13.8711,4.0282-20.5991a28.5591,28.5591,0,0,1,4.5253-9.2707,26.2337,26.2337,0,0,1,6.9606-6.2517,32.554,32.554,0,0,1,18.4126-4.7433,46.8432,46.8432,0,0,1,20.8118,6.2707c1.56.868,3.0791,1.8059,4.5625,2.7984C286.7494,116.6817,287.2506,115.8159,286.7178,115.46Z" transform="translate(-37.2872 -86.1848)"/><path class="cls-12" d="M235.75,174.8567c.4684-.4433-.24-1.1495-.7071-.7071a31.0769,31.0769,0,0,0-8.6467,14.8361,31.958,31.958,0,0,0,.62,17.5183c1.8724,6.0564,4.9029,11.785,6,18.07a20.1228,20.1228,0,0,1-.3373,9.042,17.9711,17.9711,0,0,1-4.4187,7.5341,17.7884,17.7884,0,0,1-19.2627,3.886c-.596-.2419-.8553.725-.2658.9643a18.7967,18.7967,0,0,0,17.8481-2.0891,19.0049,19.0049,0,0,0,7.7868-14.8428c.1624-6.4619-2.6338-12.5179-4.8581-18.4359a50.1423,50.1423,0,0,1-2.7124-9.2337,28.9354,28.9354,0,0,1-.0794-8.9376A30.3281,30.3281,0,0,1,235.75,174.8567Z" transform="translate(-37.2872 -86.1848)"/><path class="cls-13" d="M256.6806,222.95c-.4734-.4345-1.1824.2708-.7071.7071a3.3178,3.3178,0,0,1,.1826,4.2248c-.9955,1.5019-2.7406,2.3281-4.3053,3.0984a.5071.5071,0,0,0-.1012.7853,6.8355,6.8355,0,0,1-5.31,11.1617.5.5,0,0,0,0,1,7.804,7.804,0,0,0,6.3969-12.323c1.7184-.8588,3.5464-1.889,4.433-3.6518A4.2185,4.2185,0,0,0,256.6806,222.95Z" transform="translate(-37.2872 -86.1848)"/><path class="cls-13" d="M247.41,222.0063c-.5843-.2539-1.0941.6074-.5047.8634a3.3247,3.3247,0,0,1,1.5906,3.9078c-.4249,1.884-2.0741,3.203-3.578,4.2572a21.0051,21.0051,0,0,0-4.5126,3.63,6.6514,6.6514,0,0,0-1.2556,2.2824,9.6685,9.6685,0,0,0-.2283,3.2118,7.2216,7.2216,0,0,1-.4391,3.7121,2.1224,2.1224,0,0,1-2.587,1.1566c-.5984-.2371-.8581.73-.2659.9643,2.02.8,3.8014-1.0756,4.1768-2.9142.4881-2.39-.4942-4.9187.8862-7.1151,2.25-3.58,7.9961-4.5631,8.8132-9.1482C249.8329,224.9792,249.248,222.8049,247.41,222.0063Z" transform="translate(-37.2872 -86.1848)"/><path class="cls-13" d="M234.9281,241.1045a.5058.5058,0,0,0-.7071,0,10.03,10.03,0,0,1-3.1348,2.2589.5042.5042,0,0,0-.1793.6841.5113.5113,0,0,0,.684.1794,10.9769,10.9769,0,0,0,3.3372-2.4153A.51.51,0,0,0,234.9281,241.1045Z" transform="translate(-37.2872 -86.1848)"/><path class="cls-13" d="M232.8,240.415a.5092.5092,0,0,0-.7071,0q-1.0846,1.0725-2.1691,2.1453a.5.5,0,0,0,.7071.7071q1.0845-1.0728,2.1691-2.1453A.5055.5055,0,0,0,232.8,240.415Z" transform="translate(-37.2872 -86.1848)"/><path class="cls-13" d="M262.7159,328.7345q-.7386-2.1584-1.4774-4.3166a.512.512,0,0,0-.615-.3493.5049.5049,0,0,0-.3493.6152L261.7517,329a.5119.5119,0,0,0,.6151.3492A.5046.5046,0,0,0,262.7159,328.7345Z" transform="translate(-37.2872 -86.1848)"/><path class="cls-13" d="M266.7214,327.3944l-1.7281-3.7866a.504.504,0,0,0-.6841-.1794.512.512,0,0,0-.1794.6842q.8641,1.8932,1.7282,3.7865a.5038.5038,0,0,0,.6841.1794A.5118.5118,0,0,0,266.7214,327.3944Z" transform="translate(-37.2872 -86.1848)"/><path class="cls-13" d="M271.572,324.7l-1.6206-3.7742a.5032.5032,0,0,0-.6841-.1794.5131.5131,0,0,0-.1794.6841l1.6206,3.7742a.5031.5031,0,0,0,.6841.1793A.513.513,0,0,0,271.572,324.7Z" transform="translate(-37.2872 -86.1848)"/><path class="cls-13" d="M266.7085,333.7423q-.5331-1.4181-1.0659-2.8363a.5114.5114,0,0,0-.6151-.3492.5059.5059,0,0,0-.3492.6151l1.0659,2.8363a.5113.5113,0,0,0,.615.3491A.5057.5057,0,0,0,266.7085,333.7423Z" transform="translate(-37.2872 -86.1848)"/><path class="cls-13" d="M271.7006,331.1725q-.7959-1.49-1.5915-2.98a.5043.5043,0,0,0-.6841-.1794.5109.5109,0,0,0-.1794.6841l1.5915,2.98a.5042.5042,0,0,0,.6841.1794A.511.511,0,0,0,271.7006,331.1725Z" transform="translate(-37.2872 -86.1848)"/><path class="cls-13" d="M271.1484,337.3821l-1.3459-2.8327a.5024.5024,0,0,0-.6841-.1793.5135.5135,0,0,0-.1794.6841l1.3459,2.8326a.5025.5025,0,0,0,.6841.1793A.5134.5134,0,0,0,271.1484,337.3821Z" transform="translate(-37.2872 -86.1848)"/><path class="cls-13" d="M271.6035,355.496a31.6463,31.6463,0,0,1-2.7761-6.6831.5.5,0,0,0-.9643.2658,32.8326,32.8326,0,0,0,2.8769,6.922C271.0532,356.563,271.9172,356.0593,271.6035,355.496Z" transform="translate(-37.2872 -86.1848)"/><path class="cls-13" d="M276.0129,353.428q-1.2124-3.034-2.4251-6.0681a.5154.5154,0,0,0-.615-.3492.5035.5035,0,0,0-.3493.615l2.4252,6.0682a.5156.5156,0,0,0,.6151.3492A.5034.5034,0,0,0,276.0129,353.428Z" transform="translate(-37.2872 -86.1848)"/><path class="cls-13" d="M281.688,352.2635q-1.4451-3.2527-2.89-6.5056a.5039.5039,0,0,0-.6841-.1794.5117.5117,0,0,0-.1793.6841q1.4451,3.2527,2.89,6.5056a.504.504,0,0,0,.6841.1794A.5117.5117,0,0,0,281.688,352.2635Z" transform="translate(-37.2872 -86.1848)"/><path class="cls-13" d="M287.79,349.7a35.0837,35.0837,0,0,1-2.9594-5.7316.5157.5157,0,0,0-.615-.3492.5034.5034,0,0,0-.3493.6151,36.4594,36.4594,0,0,0,3.06,5.9705C287.2714,350.7459,288.1373,350.2449,287.79,349.7Z" transform="translate(-37.2872 -86.1848)"/><path class="cls-13" d="M292.5812,347.2272q-1.4157-2.4945-2.8313-4.9889a.5.5,0,0,0-.8635.5047q1.4157,2.4943,2.8313,4.9889A.5.5,0,0,0,292.5812,347.2272Z" transform="translate(-37.2872 -86.1848)"/><path class="cls-13" d="M297.5074,344.965l-2.5158-5.28a.5044.5044,0,0,0-.6841-.1794.5111.5111,0,0,0-.1794.6842l2.5158,5.28a.5044.5044,0,0,0,.6841.1794A.5111.5111,0,0,0,297.5074,344.965Z" transform="translate(-37.2872 -86.1848)"/><path class="cls-13" d="M302.5064,341.6026q-1.517-2.0472-3.0339-4.0947a.5155.5155,0,0,0-.6841-.1794.5037.5037,0,0,0-.1794.6841l3.0339,4.0948a.5154.5154,0,0,0,.6841.1794A.5038.5038,0,0,0,302.5064,341.6026Z" transform="translate(-37.2872 -86.1848)"/><path class="cls-13" d="M291.7922,325.5051l-1.8768-2.7041a.5.5,0,0,0-.8635.5047l1.8769,2.7041a.5.5,0,1,0,.8634-.5047Z" transform="translate(-37.2872 -86.1848)"/><path class="cls-13" d="M287.9529,326.8884q-.7547-1.6119-1.5091-3.2239a.5042.5042,0,0,0-.6841-.1793.5113.5113,0,0,0-.1793.6841l1.509,3.2238a.5042.5042,0,0,0,.6841.1794A.5114.5114,0,0,0,287.9529,326.8884Z" transform="translate(-37.2872 -86.1848)"/><path class="cls-13" d="M286.5135,319.8564q-.809-1.3482-1.6178-2.6967a.5.5,0,1,0-.8635.5048q.809,1.3482,1.6178,2.6967a.5.5,0,1,0,.8635-.5048Z" transform="translate(-37.2872 -86.1848)"/><path class="cls-13" d="M235.8265,213.4362a.5068.5068,0,0,0-.6841.1794q-.6008,1.2054-1.2012,2.4107a.5.5,0,1,0,.8634.5047q.6006-1.2053,1.2013-2.4107A.51.51,0,0,0,235.8265,213.4362Z" transform="translate(-37.2872 -86.1848)"/><path class="cls-13" d="M239.1683,215.8619a.5.5,0,0,0-.9139.12,5.992,5.992,0,0,1-.2745,1.0471c-.03.0833-.06.1689-.097.2494l-.0107.0229q-.03.0672-.0615.1335c-.079.166-.1662.3278-.26.4859a.5.5,0,0,0,.8635.5048,6.3743,6.3743,0,0,0,.8044-2.1778A.5425.5425,0,0,0,239.1683,215.8619Z" transform="translate(-37.2872 -86.1848)"/><path class="cls-13" d="M236.56,217.4a.508.508,0,0,0-.6841.1793L234.7,219.732a.5.5,0,1,0,.8634.5047q.5881-1.0766,1.176-2.1532A.5076.5076,0,0,0,236.56,217.4Z" transform="translate(-37.2872 -86.1848)"/><path class="cls-13" d="M230.0882,223.69a.5068.5068,0,0,0-.6841.1794l-1.0077,2.0581a.5.5,0,1,0,.8634.5048l1.0078-2.0581A.5106.5106,0,0,0,230.0882,223.69Z" transform="translate(-37.2872 -86.1848)"/><path class="cls-13" d="M231.9672,226.2164a.5135.5135,0,0,0-.4986.4947l0-.0043-.0007.005-.0012.0046-.0019.0156-.0086.0568q-.0131.0819-.0289.1632-.0318.1627-.0745.3231a5.3344,5.3344,0,0,1-.1973.5881c-.0105.024-.0211.048-.032.0718q-.0345.0753-.0714.15-.0647.13-.1369.2557a5.0085,5.0085,0,0,1-.3682.551.5011.5011,0,0,0,.1794.6841.5155.5155,0,0,0,.684-.1794,5.4473,5.4473,0,0,0,1.0563-2.68A.5011.5011,0,0,0,231.9672,226.2164Z" transform="translate(-37.2872 -86.1848)"/><path class="cls-13" d="M229.7239,229.7111a.5073.5073,0,0,0-.6841.1793l-1.6165,3.1469a.5.5,0,1,0,.8634.5047l1.6166-3.1468A.5093.5093,0,0,0,229.7239,229.7111Z" transform="translate(-37.2872 -86.1848)"/><path class="cls-13" d="M250.4842,233.8254a.5047.5047,0,0,0-.6841-.1794.51.51,0,0,0-.1794.6841c.0222.0409.042.0827.0632.1239l.0048.01.0119.0306a2.1923,2.1923,0,0,1,.0716.2322q.0166.0675.0292.1359l.0069.0413c.0064.0862.0128.1717.0119.2583a.7818.7818,0,0,1-.0175.26q.0155-.1131.0025-.03-.006.0343-.0129.0684-.0122.06-.0277.1184t-.034.1167a.4054.4054,0,0,1-.0468.1307q.0428-.0987.01-.0235-.0144.0318-.03.0628c-.0206.0417-.0429.0823-.0658.1226a.5.5,0,1,0,.8634.5048A2.7645,2.7645,0,0,0,250.4842,233.8254Z" transform="translate(-37.2872 -86.1848)"/><path class="cls-13" d="M248.8927,238.2369c.0131-.0328.027-.0745,0,0Z" transform="translate(-37.2872 -86.1848)"/><path class="cls-13" d="M249.5324,237.8274a.5141.5141,0,0,0-.615.3492c-.0108.028-.0232.0559-.0334.0841l.0087-.0238-.006.0152q-.0342.0754-.072.1492-.0756.1478-.1646.2877-.0446.07-.0922.1379c-.0174.0246-.0353.0489-.053.0733v0c-.0685.0837-.1381.1661-.2129.2444q-.1145.12-.24.2293c-.04.0345-.08.0672-.1207.1006l-.0011.0008q-.03.0225-.061.0443a3.5746,3.5746,0,0,1-.6011.3433.5011.5011,0,0,0-.23.2988.5.5,0,0,0,.7345.5646,4.11,4.11,0,0,0,2.1085-2.2841A.502.502,0,0,0,249.5324,237.8274Z" transform="translate(-37.2872 -86.1848)"/><path class="cls-2" d="M134.9112,239.9284a22.745,22.745,0,0,1-1.8388-13.2675c.1034-.63-.86-.9-.9642-.2658a23.93,23.93,0,0,0,1.9395,14.0381C134.32,241.0156,135.1826,240.5085,134.9112,239.9284Z" transform="translate(-37.2872 -86.1848)"/><path class="cls-2" d="M132.8371,242.7028a15.5089,15.5089,0,0,1-4.0194-9.5139c-.0374-.64-1.0376-.6439-1,0A16.6069,16.6069,0,0,0,132.13,243.41C132.5651,243.886,133.2707,243.1772,132.8371,242.7028Z" transform="translate(-37.2872 -86.1848)"/><path class="cls-2" d="M327.4479,154.5575l-6.64,4.5122c-.5293.36-.0295,1.2265.5047.8634l6.64-4.5122C328.4818,155.0613,327.9821,154.1944,327.4479,154.5575Z" transform="translate(-37.2872 -86.1848)"/><path class="cls-2" d="M330.2632,161.5193a43.021,43.021,0,0,1-7.7329,1.7843.5036.5036,0,0,0-.3493.6151.5131.5131,0,0,0,.6151.3492,43.021,43.021,0,0,0,7.7329-1.7843C331.1372,162.2826,330.8767,161.3166,330.2632,161.5193Z" transform="translate(-37.2872 -86.1848)"/><path class="cls-2" d="M328.7332,171.0278,321.72,169.6c-.6282-.1279-.8969.8357-.2658.9643l7.0133,1.4281C329.0955,172.12,329.3643,171.1563,328.7332,171.0278Z" transform="translate(-37.2872 -86.1848)"/><path class="cls-2" d="M336.4671,248.6449a11.2344,11.2344,0,0,1-2.5243,7.5162c-.4064.4928.2972,1.2041.7072.707a12.283,12.283,0,0,0,2.8171-8.2232C337.4445,248.0033,336.4444,248,336.4671,248.6449Z" transform="translate(-37.2872 -86.1848)"/><path class="cls-2" d="M341.14,250.8047a11.161,11.161,0,0,1-2.6626,7.3667c-.417.486.2872,1.1964.7072.7071a12.2232,12.2232,0,0,0,2.9554-8.0738A.5.5,0,0,0,341.14,250.8047Z" transform="translate(-37.2872 -86.1848)"/><path class="cls-2" d="M306.0407,267.79a9.6819,9.6819,0,0,1-5.6811.9454.5024.5024,0,0,0-.5.5.5129.5129,0,0,0,.5.5,10.5826,10.5826,0,0,0,6.1858-1.082C307.119,268.3612,306.6135,267.4982,306.0407,267.79Z" transform="translate(-37.2872 -86.1848)"/><path class="cls-2" d="M308.0455,273.6847a.5039.5039,0,0,0-.6151-.3492,13.2848,13.2848,0,0,1-5.0805.881.5.5,0,0,0,0,1,14.0535,14.0535,0,0,0,5.3463-.9167A.5145.5145,0,0,0,308.0455,273.6847Z" transform="translate(-37.2872 -86.1848)"/><path class="cls-11" d="M196.9688,148.5593a14.4912,14.4912,0,1,1-22.486-12.0658l-1.5876-43.7868a6.2917,6.2917,0,0,1,6.28-6.5152l6.4781-.0067a6.2917,6.2917,0,0,1,6.2928,6.5024l-1.4979,43.79A14.47,14.47,0,0,1,196.9688,148.5593Z" transform="translate(-37.2872 -86.1848)"/><path class="cls-6" d="M192.7761,148.5534a10.2986,10.2986,0,1,1-15.98-8.5748L175.6676,108.86a4.4714,4.4714,0,0,1,4.4627-4.63l4.6038-.0047a4.4714,4.4714,0,0,1,4.4722,4.621l-1.0646,31.1205A10.2832,10.2832,0,0,1,192.7761,148.5534Z" transform="translate(-37.2872 -86.1848)"/><path class="cls-2" d="M182.63,99.6345l-10.7606.4673c-.9841.0428-.9878,1.5781.0016,1.5351l10.7606-.4673C183.6153,101.1269,183.619,99.5916,182.63,99.6345Z" transform="translate(-37.2872 -86.1848)"/><path class="cls-2" d="M178.813,109.3444l-6.6234.0986a.768.768,0,0,0,.0015,1.5351l6.6234-.0986A.768.768,0,0,0,178.813,109.3444Z" transform="translate(-37.2872 -86.1848)"/><path class="cls-2" d="M182.0279,115.2245l-10.35.7132c-.98.0675-.9861,1.6031.0016,1.5351l10.35-.7132C183.01,116.6921,183.0155,115.1564,182.0279,115.2245Z" transform="translate(-37.2872 -86.1848)"/><path class="cls-2" d="M178.3075,122.1343l-5.5874.3279a.7847.7847,0,0,0-.7667.7683.7744.7744,0,0,0,.7683.7667l5.5874-.3278a.7848.7848,0,0,0,.7668-.7684A.7746.7746,0,0,0,178.3075,122.1343Z" transform="translate(-37.2872 -86.1848)"/><path class="cls-2" d="M180.59,128.94l-8.3814.4381c-.9829.0514-.9873,1.5867.0016,1.5351l8.3814-.4381C181.5747,130.424,181.5791,128.8886,180.59,128.94Z" transform="translate(-37.2872 -86.1848)"/><path class="cls-2" d="M178.3205,134.2526l-4.45.0045a.7676.7676,0,0,0,.0015,1.5351l4.45-.0046a.7675.7675,0,1,0-.0016-1.535Z" transform="translate(-37.2872 -86.1848)"/><path class="cls-14" d="M189.4554,143.9512a4.11,4.11,0,0,0-3.218-1.3452,2.1312,2.1312,0,0,0-2.0609,2.22c.0795,1.2506,1.19,2.168,1.129,3.43a4.4912,4.4912,0,0,1-.255.795c-.5584,1.2947-1.7587,1.8956-2.6229,2.9363a2.8794,2.8794,0,0,0-.4644,3.4417,3.2233,3.2233,0,0,0,3.2983,1.2278C190.7681,155.7213,193.3982,147.9541,189.4554,143.9512Z" transform="translate(-37.2872 -86.1848)"/><path class="cls-14" d="M187.3475,109.6543a.768.768,0,0,0-1.5351.0015,274.4588,274.4588,0,0,1-1.0346,28.7613c-.0872.9838,1.4484.9762,1.535-.0015A274.4608,274.4608,0,0,0,187.3475,109.6543Z" transform="translate(-37.2872 -86.1848)"/><text class="cls-15" transform="translate(301.9546 112.4367) rotate(-0.0584)">COUGH</text><polyline class="cls-16" points="263.636 128.502 274.871 117.267 367.713 117.267"/><path class="cls-2" d="M410.1064,202.784A5.106,5.106,0,1,1,405,197.678,5.106,5.106,0,0,1,410.1064,202.784Z" transform="translate(-37.2872 -86.1848)"/><text class="cls-15" transform="matrix(1, -0.001, 0.001, 1, 311.9898, 58.7074)">HEADACHE</text><polyline class="cls-16" points="298.886 76.271 310.122 65.035 402.964 65.035"/><path class="cls-2" d="M445.357,150.5523a5.1061,5.1061,0,1,1-5.106-5.106A5.106,5.106,0,0,1,445.357,150.5523Z" transform="translate(-37.2872 -86.1848)"/><text class="cls-15" transform="matrix(1, -0.001, 0.001, 1, 8.7114, 80.6426)">MUSCLE PAIN</text><circle class="cls-2" cx="5.106" cy="90.7955" r="5.106"/><polyline class="cls-16" points="4.747 89.676 98.286 89.676 110.856 105.446"/><text class="cls-15" transform="matrix(1, -0.001, 0.001, 1, 71.5447, 19.3711)">FEVER</text><polyline class="cls-16" points="130.882 42.43 117.601 24.532 65.834 24.616"/><path class="cls-2" d="M108.2277,110.7168a5.106,5.106,0,1,1-5.106-5.1061A5.106,5.106,0,0,1,108.2277,110.7168Z" transform="translate(-37.2872 -86.1848)"/><text class="cls-15" transform="matrix(1, -0.001, 0.001, 1, 286.8162, 210.0197)">DYSPNOEA</text><polyline class="cls-16" points="379.578 217.114 281.703 217.114 257.026 199.483"/><circle class="cls-2" cx="379.5784" cy="217.114" r="5.106"/><path class="cls-17" d="M123.9869,265.9085a10.859,10.859,0,1,1-10.87-10.8479A10.857,10.857,0,0,1,123.9869,265.9085Z" transform="translate(-37.2872 -86.1848)"/><path class="cls-18" d="M115.4621,266.5022a2.5638,2.5638,0,1,1-2.5674,2.5664A2.5682,2.5682,0,0,1,115.4621,266.5022Z" transform="translate(-37.2872 -86.1848)"/><path class="cls-18" d="M109.4488,258.5119a3.8333,3.8333,0,1,1-3.8293,3.8372A3.831,3.831,0,0,1,109.4488,258.5119Z" transform="translate(-37.2872 -86.1848)"/><path class="cls-18" d="M109.4215,268.3006a1.6677,1.6677,0,1,1-1.666,1.6694A1.6678,1.6678,0,0,1,109.4215,268.3006Z" transform="translate(-37.2872 -86.1848)"/><path class="cls-17" d="M102.2493,246.6684a4.0066,4.0066,0,0,0-.4958,1.8347c-.802-.073-1.6039-.1275-2.4058-.1727a14.9681,14.9681,0,0,1-9.5122,8.4154c-.0174,1.06-.0532,2.1106-.1074,3.1706h-.0276a2.2207,2.2207,0,0,0-1.0136.2407c-.2315-.9952-.4721-2-.722-2.9947A14.9132,14.9132,0,0,1,77.3633,254.86c-.396.2861-.792.563-1.1973.84a1.6657,1.6657,0,0,0-.83-.718c.2762-.3414.5247-.6918.7639-1.0515a14.9093,14.9093,0,0,1-5.2723-9.3772q-1.1614-.1372-2.35-.2465a2.3821,2.3821,0,0,0,.193-.4426,3.5133,3.5133,0,0,0,.1-1.8711c.645-.185,1.2808-.3608,1.9258-.5273a14.7853,14.7853,0,0,1,1.9473-6.4906c-.6738-.9117-1.3752-1.8235-2.1042-2.7168a1.4516,1.4516,0,0,0,.8288-.7013c.7932.58,1.5956,1.15,2.3889,1.7395A14.9291,14.9291,0,0,1,85.6027,227.45a14.741,14.741,0,0,1,3.4014.3929c.3126-.6916.6068-1.3832.9011-2.0839a3.6161,3.6161,0,0,0,1.752.8092c-.1192.673-.22,1.3459-.3206,2.0188a14.9127,14.9127,0,0,1,7.9712,7.7892q.7188-.25,1.4373-.5268a2.9489,2.9489,0,0,0,.8123,1.1882c-.5527.3046-1.0962.6186-1.6488.9233a14.9434,14.9434,0,0,1,.6681,4.4233,15.189,15.189,0,0,1-.4663,3.7425C100.82,246.31,101.54,246.494,102.2493,246.6684Z" transform="translate(-37.2872 -86.1848)"/><path class="cls-18" d="M101.7535,248.503a4.0065,4.0065,0,0,1,.4958-1.8346,4.2608,4.2608,0,1,1-.5049,2.01A1.1184,1.1184,0,0,1,101.7535,248.503Z" transform="translate(-37.2872 -86.1848)"/><path class="cls-18" d="M100.7451,235.85a3.0266,3.0266,0,0,1-.1761-1.0044,2.9095,2.9095,0,1,1,.1761,1.0044Z" transform="translate(-37.2872 -86.1848)"/><path class="cls-18" d="M91.6572,226.5684a3.6093,3.6093,0,1,1,.5807.0455A4.0094,4.0094,0,0,1,91.6572,226.5684Z" transform="translate(-37.2872 -86.1848)"/><path class="cls-18" d="M90.2192,244.4226a2.4056,2.4056,0,1,1-2.3939,2.408A2.4073,2.4073,0,0,1,90.2192,244.4226Z" transform="translate(-37.2872 -86.1848)"/><path class="cls-18" d="M89.7281,259.9164a2.2812,2.2812,0,1,1-2.3018,2.2789,2.2548,2.2548,0,0,1,1.2606-2.0382,2.2207,2.2207,0,0,1,1.0136-.2407Z" transform="translate(-37.2872 -86.1848)"/><path class="cls-18" d="M80.0611,234.1656a6.1706,6.1706,0,1,1-6.1689,6.1723A6.16,6.16,0,0,1,80.0611,234.1656Z" transform="translate(-37.2872 -86.1848)"/><path class="cls-18" d="M82.501,249.7393a1.9632,1.9632,0,1,1-1.9611,1.9652A1.9668,1.9668,0,0,1,82.501,249.7393Z" transform="translate(-37.2872 -86.1848)"/><path class="cls-18" d="M75.3358,254.9818a1.6653,1.6653,0,0,1,.83.718,1.7076,1.7076,0,0,1,.2775.94,1.8019,1.8019,0,1,1-1.8083-1.8046A1.763,1.763,0,0,1,75.3358,254.9818Z" transform="translate(-37.2872 -86.1848)"/><path class="cls-18" d="M71.3671,231.5569a1.4518,1.4518,0,0,1-.8288.7014,1.2908,1.2908,0,0,1-.4976.0926,1.5346,1.5346,0,1,1,1.5284-1.5315A1.4516,1.4516,0,0,1,71.3671,231.5569Z" transform="translate(-37.2872 -86.1848)"/><path class="cls-18" d="M68.7694,241.9929a3.5142,3.5142,0,0,1-.0994,1.8711,2.3862,2.3862,0,0,1-.1931.4426,3.4964,3.4964,0,1,1,.2925-2.3137Z" transform="translate(-37.2872 -86.1848)"/><path class="cls-17" d="M84.2666,270.4357a5.137,5.137,0,1,1-5.1423-5.1318A5.136,5.136,0,0,1,84.2666,270.4357Z" transform="translate(-37.2872 -86.1848)"/><path class="cls-18" d="M80.2338,270.7165a1.2129,1.2129,0,1,1-1.2146,1.2142A1.215,1.215,0,0,1,80.2338,270.7165Z" transform="translate(-37.2872 -86.1848)"/><path class="cls-18" d="M77.3891,266.9366a1.8134,1.8134,0,1,1-1.8115,1.8153A1.8124,1.8124,0,0,1,77.3891,266.9366Z" transform="translate(-37.2872 -86.1848)"/><path class="cls-18" d="M77.3762,271.5673a.789.789,0,1,1-.7882.79A.789.789,0,0,1,77.3762,271.5673Z" transform="translate(-37.2872 -86.1848)"/><path class="cls-17" d="M395.1983,240.44a2.8972,2.8972,0,0,0-.3583,1.3256c-.5793-.0527-1.1587-.0921-1.7381-.1248a10.8146,10.8146,0,0,1-6.8725,6.08c-.0126.7657-.0384,1.5249-.0776,2.2907h-.02a1.6036,1.6036,0,0,0-.7323.1738c-.1672-.719-.3411-1.4446-.5216-2.1636a10.7743,10.7743,0,0,1-7.66-1.6636c-.2861.2067-.5723.4068-.8651.6069a1.203,1.203,0,0,0-.6-.5188c.2-.2466.3791-.5.5519-.76a10.7717,10.7717,0,0,1-3.8092-6.775q-.8391-.099-1.6982-.1781a1.7258,1.7258,0,0,0,.1395-.32,2.5389,2.5389,0,0,0,.0718-1.3519c.466-.1337.9254-.2607,1.3914-.381a10.6839,10.6839,0,0,1,1.4069-4.6894c-.4868-.6587-.9935-1.3174-1.52-1.9628a1.049,1.049,0,0,0,.5987-.5067c.5731.4189,1.1529.8312,1.726,1.2568a10.7861,10.7861,0,0,1,8.5592-4.224,10.6583,10.6583,0,0,1,2.4575.2838c.2258-.5.4384-.9993.651-1.5055a2.6137,2.6137,0,0,0,1.2658.5846c-.086.4863-.1588.9724-.2316,1.4586a10.7745,10.7745,0,0,1,5.7592,5.6277q.5193-.18,1.0384-.3807a2.13,2.13,0,0,0,.5869.8585c-.3993.22-.792.4469-1.1913.6671a10.794,10.794,0,0,1,.4827,3.1958,10.9762,10.9762,0,0,1-.3368,2.7039C394.1659,240.1812,394.6854,240.3138,395.1983,240.44Z" transform="translate(-37.2872 -86.1848)"/><path class="cls-18" d="M394.84,241.7653a2.8959,2.8959,0,0,1,.3583-1.3255,3.0784,3.0784,0,1,1-.3648,1.4521A.8139.8139,0,0,1,394.84,241.7653Z" transform="translate(-37.2872 -86.1848)"/><path class="cls-18" d="M394.1115,232.6232a2.1867,2.1867,0,0,1-.1272-.7257,2.1019,2.1019,0,1,1,.1272.7257Z" transform="translate(-37.2872 -86.1848)"/><path class="cls-18" d="M387.5455,225.9177a2.6082,2.6082,0,1,1,.42.0328A2.8894,2.8894,0,0,1,387.5455,225.9177Z" transform="translate(-37.2872 -86.1848)"/><path class="cls-18" d="M386.5066,238.8173a1.738,1.738,0,1,1-1.73,1.74A1.7392,1.7392,0,0,1,386.5066,238.8173Z" transform="translate(-37.2872 -86.1848)"/><path class="cls-18" d="M386.1518,250.0114a1.6482,1.6482,0,1,1-1.6631,1.6465,1.6293,1.6293,0,0,1,.9108-1.4726,1.6036,1.6036,0,0,1,.7323-.1738Z" transform="translate(-37.2872 -86.1848)"/><path class="cls-18" d="M379.1674,231.4066a4.4582,4.4582,0,1,1-4.457,4.4595A4.4505,4.4505,0,0,1,379.1674,231.4066Z" transform="translate(-37.2872 -86.1848)"/><path class="cls-18" d="M380.93,242.6586a1.4184,1.4184,0,1,1-1.417,1.42A1.4209,1.4209,0,0,1,380.93,242.6586Z" transform="translate(-37.2872 -86.1848)"/><path class="cls-18" d="M375.7534,246.4462a1.2037,1.2037,0,0,1,.6.5188,1.233,1.233,0,0,1,.2.679,1.3019,1.3019,0,1,1-1.3065-1.3038A1.2733,1.2733,0,0,1,375.7534,246.4462Z" transform="translate(-37.2872 -86.1848)"/><path class="cls-18" d="M372.886,229.5219a1.0486,1.0486,0,0,1-.5988.5067.9325.9325,0,0,1-.3595.0669,1.1087,1.1087,0,1,1,1.1043-1.1065A1.0489,1.0489,0,0,1,372.886,229.5219Z" transform="translate(-37.2872 -86.1848)"/><path class="cls-18" d="M371.0092,237.0618a2.5389,2.5389,0,0,1-.0718,1.3519,1.7258,1.7258,0,0,1-.1395.32,2.5261,2.5261,0,1,1,.2113-1.6716Z" transform="translate(-37.2872 -86.1848)"/><path class="cls-17" d="M382.8521,259.6221A5.137,5.137,0,1,1,377.71,254.49,5.136,5.136,0,0,1,382.8521,259.6221Z" transform="translate(-37.2872 -86.1848)"/><path class="cls-18" d="M378.8194,259.9029a1.2129,1.2129,0,1,1-1.2146,1.2141A1.215,1.215,0,0,1,378.8194,259.9029Z" transform="translate(-37.2872 -86.1848)"/><path class="cls-18" d="M375.9747,256.123a1.8134,1.8134,0,1,1-1.8116,1.8152A1.8122,1.8122,0,0,1,375.9747,256.123Z" transform="translate(-37.2872 -86.1848)"/><path class="cls-18" d="M375.9617,260.7537a.789.789,0,1,1-.7881.79A.7889.7889,0,0,1,375.9617,260.7537Z" transform="translate(-37.2872 -86.1848)"/><path class="cls-17" d="M417.6217,102.08a6.2637,6.2637,0,1,1-6.27-6.2572A6.2625,6.2625,0,0,1,417.6217,102.08Z" transform="translate(-37.2872 -86.1848)"/><path class="cls-18" d="M412.7044,102.4221a1.4789,1.4789,0,1,1-1.4809,1.48A1.4813,1.4813,0,0,1,412.7044,102.4221Z" transform="translate(-37.2872 -86.1848)"/><path class="cls-18" d="M409.2358,97.8131a2.2112,2.2112,0,1,1-2.2088,2.2134A2.21,2.21,0,0,1,409.2358,97.8131Z" transform="translate(-37.2872 -86.1848)"/><path class="cls-18" d="M409.22,103.4594a.962.962,0,1,1-.961.963A.962.962,0,0,1,409.22,103.4594Z" transform="translate(-37.2872 -86.1848)"/><path class="cls-17" d="M452.3131,112.6289a2.7743,2.7743,0,0,0-.3432,1.27c-.5551-.05-1.11-.0882-1.6652-.1195a10.3606,10.3606,0,0,1-6.5842,5.8249c-.012.7337-.0368,1.461-.0743,2.1947h-.0192a1.537,1.537,0,0,0-.7015.1666c-.16-.6888-.3268-1.3841-.5-2.0729a10.3213,10.3213,0,0,1-7.3382-1.5937c-.2741.198-.5482.39-.8287.5813a1.1539,1.1539,0,0,0-.5747-.497c.1912-.2362.3632-.4788.5288-.7278a10.3191,10.3191,0,0,1-3.6494-6.4907q-.804-.0949-1.627-.1706a1.6485,1.6485,0,0,0,.1336-.3063,2.4331,2.4331,0,0,0,.0689-1.2952c.4464-.1281.8865-.25,1.333-.365a10.2343,10.2343,0,0,1,1.3479-4.4926c-.4664-.6311-.9519-1.2622-1.4565-1.88a1.0045,1.0045,0,0,0,.5736-.4855c.5491.4014,1.1045.7964,1.6536,1.2041a10.3333,10.3333,0,0,1,8.2-4.0467,10.2092,10.2092,0,0,1,2.3543.2719c.2164-.4787.42-.9574.6237-1.4424a2.503,2.503,0,0,0,1.2127.56c-.0824.4659-.1521.9316-.2218,1.3974a10.3226,10.3226,0,0,1,5.5175,5.3915q.4974-.1727.9948-.3646a2.0414,2.0414,0,0,0,.5623.8224c-.3826.2109-.7588.4282-1.1413.6391a10.344,10.344,0,0,1,.4624,3.0618,10.5143,10.5143,0,0,1-.3227,2.59C451.324,112.3811,451.8218,112.5082,452.3131,112.6289Z" transform="translate(-37.2872 -86.1848)"/><path class="cls-18" d="M451.97,113.8988a2.7743,2.7743,0,0,1,.3432-1.27,2.9493,2.9493,0,1,1-.35,1.3911A.7694.7694,0,0,1,451.97,113.8988Z" transform="translate(-37.2872 -86.1848)"/><path class="cls-18" d="M451.2719,105.14a2.0989,2.0989,0,0,1-.1219-.6953,2.0136,2.0136,0,1,1,.1219.6953Z" transform="translate(-37.2872 -86.1848)"/><path class="cls-18" d="M444.9814,98.7161a2.4984,2.4984,0,1,1,.402.0315A2.7769,2.7769,0,0,1,444.9814,98.7161Z" transform="translate(-37.2872 -86.1848)"/><path class="cls-18" d="M443.9861,111.0744a1.6651,1.6651,0,1,1-1.657,1.6668A1.6663,1.6663,0,0,1,443.9861,111.0744Z" transform="translate(-37.2872 -86.1848)"/><path class="cls-18" d="M443.6462,121.7989a1.579,1.579,0,1,1-1.5933,1.5774,1.5607,1.5607,0,0,1,.8726-1.4108,1.5367,1.5367,0,0,1,.7015-.1666Z" transform="translate(-37.2872 -86.1848)"/><path class="cls-18" d="M436.9549,103.9747a4.2712,4.2712,0,1,1-4.27,4.2723A4.2637,4.2637,0,0,1,436.9549,103.9747Z" transform="translate(-37.2872 -86.1848)"/><path class="cls-18" d="M438.6437,114.7545a1.3589,1.3589,0,1,1-1.3574,1.36A1.3615,1.3615,0,0,1,438.6437,114.7545Z" transform="translate(-37.2872 -86.1848)"/><path class="cls-18" d="M433.6841,118.3832a1.1536,1.1536,0,0,1,.5747.4971,1.1811,1.1811,0,0,1,.192.65,1.2472,1.2472,0,1,1-1.2516-1.2491A1.2216,1.2216,0,0,1,433.6841,118.3832Z" transform="translate(-37.2872 -86.1848)"/><path class="cls-18" d="M430.937,102.1691a1.0047,1.0047,0,0,1-.5736.4854.8925.8925,0,0,1-.3445.0641,1.0622,1.0622,0,1,1,1.058-1.06A1.0053,1.0053,0,0,1,430.937,102.1691Z" transform="translate(-37.2872 -86.1848)"/><path class="cls-18" d="M429.139,109.3926a2.4337,2.4337,0,0,1-.0688,1.2951,1.6506,1.6506,0,0,1-.1337.3064,2.42,2.42,0,1,1,.2025-1.6015Z" transform="translate(-37.2872 -86.1848)"/><circle class="cls-18" cx="414.1958" cy="393.0311" r="16.7486" transform="translate(-156.0223 511.8248) rotate(-64.5361)"/><path class="cls-17" d="M398.98,391.4567a2.84,2.84,0,1,1,3.6817,1.6036A2.8409,2.8409,0,0,1,398.98,391.4567Z" transform="translate(-37.2872 -86.1848)"/><path class="cls-17" d="M402.9727,370.6687a4.6276,4.6276,0,0,1,5.7472,6.5446,4.39,4.39,0,0,1-1.1453,1.3618c.5069.4342,1.01.8762,1.4992,1.33l-.0292.0244a3.5638,3.5638,0,0,1-3.3779,1.6514c-.034-.6783-.07-1.3622-.0986-2.0428l-.0032-.0245a4.4266,4.4266,0,0,1-1.3432.0691,4.6291,4.6291,0,0,1-1.249-8.9144Z" transform="translate(-37.2872 -86.1848)"/><path class="cls-17" d="M393.7549,398.1914a2.8937,2.8937,0,1,1,1.6342-3.7518c.0374.0952.0692.1926.0988.2843.6733-.1289,1.3388-.2613,2.0121-.39.4731-.0955.9485-.1854,1.4216-.281l.0022.0056c.0342.0706.0706.1468.1048.2174a1.9621,1.9621,0,0,1,.1937,1.068,1.2093,1.2093,0,0,1-.27.63c-.4166-.0237-.8331-.0473-1.2509-.0576-.7137-.0232-1.4264-.0274-2.14-.0182A2.8888,2.8888,0,0,1,393.7549,398.1914Z" transform="translate(-37.2872 -86.1848)"/><path class="cls-17" d="M398.857,385.668a4.4658,4.4658,0,0,1-1.6275,1.1053,4.5213,4.5213,0,1,1,2.6693-2.9112A4.4686,4.4686,0,0,1,398.857,385.668Z" transform="translate(-37.2872 -86.1848)"/><path class="cls-17" d="M426.8253,382.0276a3.0825,3.0825,0,0,1,1.3624-1.04,3.1644,3.1644,0,0,1,2.3158,5.89,2.8093,2.8093,0,0,1-.6613.1759,3.16,3.16,0,0,1-3.0169-5.026Z" transform="translate(-37.2872 -86.1848)"/><path class="cls-17" d="M399.9878,386.7683l-.009.01a9.1713,9.1713,0,0,1-.9176-.8868,14.2243,14.2243,0,0,1,1.084-1.9453,9.6006,9.6006,0,0,0,1.2849.3416A2.3277,2.3277,0,0,1,399.9878,386.7683Z" transform="translate(-37.2872 -86.1848)"/><path class="cls-17" d="M419.27,368.7147a3.8141,3.8141,0,0,1,2.7914,7.0992,3.6194,3.6194,0,0,1-1.1679.2523l.0031.0569c-.1023.48-.2045.96-.3146,1.436q-.4955,2.1923-1.0936,4.3538a8.2981,8.2981,0,0,1-2.4719-.45,4.0305,4.0305,0,0,1-1.4657-.9493l.0326-.0322c.6477-1.2954,1.3211-2.5751,2.0413-3.8344.2348-.422.4831-.8428.7279-1.2558l.0462-.0635a3.7472,3.7472,0,0,1-1.2827-1.6676A3.8152,3.8152,0,0,1,419.27,368.7147Z" transform="translate(-37.2872 -86.1848)"/><path class="cls-17" d="M412.1271,384.2514a2.623,2.623,0,1,1-3.4008-1.4813A2.6212,2.6212,0,0,1,412.1271,384.2514Z" transform="translate(-37.2872 -86.1848)"/><path class="cls-17" d="M418.4169,414.5847a4.3276,4.3276,0,0,1-5.6105-2.4484,4.33,4.33,0,0,1,2.2994-5.5454l-.0474-.1042-.491-1.2485a5.3667,5.3667,0,0,1,3.9377-.3265l.098.052a13.07,13.07,0,0,1-.8113,1.3726,4.3028,4.3028,0,0,1,2.84,2.1606,3.6911,3.6911,0,0,1,.2251.4739A4.3275,4.3275,0,0,1,418.4169,414.5847Z" transform="translate(-37.2872 -86.1848)"/><path class="cls-17" d="M427.9025,402.6713c.29.4418.5913.8793.896,1.309a4.3283,4.3283,0,1,1-1.3707,1.3146c-.3942-.2135-.79-.4135-1.1962-.6092-.323-.1639-.655-.3178-.9848-.466a3.64,3.64,0,0,1,2.0445-2.4782C427.4927,402.0566,427.692,402.3662,427.9025,402.6713Z" transform="translate(-37.2872 -86.1848)"/><path class="cls-17" d="M402.0415,416.8666a3.772,3.772,0,1,1,.5792-6.7308q1.0588-1.6476,1.9561-3.3936c.2124-.4132.4227-.832.62-1.252a2.2732,2.2732,0,0,1,1.2094.4618,2.2275,2.2275,0,0,1,.7877,1.1319c-.2707.2486-.5392.5029-.7977.7661-1.0044.9638-1.9822,1.9624-2.9323,2.9823a3.6929,3.6929,0,0,1,.7083,1.1437A3.77,3.77,0,0,1,402.0415,416.8666Z" transform="translate(-37.2872 -86.1848)"/><path class="cls-17" d="M422.248,401.0482a2.0544,2.0544,0,1,1,1.1619-2.6676A2.0551,2.0551,0,0,1,422.248,401.0482Z" transform="translate(-37.2872 -86.1848)"/><path class="cls-17" d="M398.9352,405.58a1.48,1.48,0,1,1,.5525-2.3763c.3107-.2127.617-.4366.9233-.66.5576-.4067,1.1053-.8225,1.6485-1.2493a1.737,1.737,0,0,1,.0035,1.8667l-.9172.38-1.2811.5231A1.4743,1.4743,0,0,1,398.9352,405.58Z" transform="translate(-37.2872 -86.1848)"/><path class="cls-17" d="M410.5909,397.3768a2.96,2.96,0,1,1-3.8377-1.6716A2.9629,2.9629,0,0,1,410.5909,397.3768Z" transform="translate(-37.2872 -86.1848)"/><path class="cls-17" d="M425.1743,389.2057a2.271,2.271,0,1,1-2.9428-1.2864A2.27,2.27,0,0,1,425.1743,389.2057Z" transform="translate(-37.2872 -86.1848)"/><path class="cls-17" d="M416.5751,396.3038a4.3255,4.3255,0,1,1,2.4427-5.6083A4.3263,4.3263,0,0,1,416.5751,396.3038Z" transform="translate(-37.2872 -86.1848)"/><path class="cls-17" d="M414.4419,399.05a2.0665,2.0665,0,1,1-1.1709,2.6776A2.068,2.068,0,0,1,414.4419,399.05Z" transform="translate(-37.2872 -86.1848)"/><path class="cls-17" d="M427.114,394.2868l.11.0666a15.2362,15.2362,0,0,1,2.19.9167l.08.0395a3.4545,3.4545,0,0,1,1.4374-1.4572,2.5375,2.5375,0,0,1,.3921-.1865,3.5524,3.5524,0,1,1-1.5213,5.4528,3.4276,3.4276,0,0,1-.4832-.8508,3.4713,3.4713,0,0,1-.2419-1.2236l-.0626.0052-2.2623.0169-.1812.0324A3.7654,3.7654,0,0,1,427.114,394.2868Z" transform="translate(-37.2872 -86.1848)"/><circle class="cls-17" cx="382.3915" cy="357.3499" r="13.2286" transform="translate(-165.7891 384.7877) rotate(-55.5997)"/><path class="cls-18" d="M382.0145,354.4434a3.1233,3.1233,0,1,1,4.0523,1.7709A3.1286,3.1286,0,0,1,382.0145,354.4434Z" transform="translate(-37.2872 -86.1848)"/><path class="cls-18" d="M375.6255,364.8162a4.67,4.67,0,1,1,6.0548,2.6372A4.6671,4.6671,0,0,1,375.6255,364.8162Z" transform="translate(-37.2872 -86.1848)"/><path class="cls-18" d="M386.74,360.495a2.0316,2.0316,0,1,1,2.6342,1.1474A2.0318,2.0318,0,0,1,386.74,360.495Z" transform="translate(-37.2872 -86.1848)"/><path class="cls-17" d="M369.7513,377.0358c1.3908,3.5479,6.907,1.3923,5.5139-2.1614C373.8744,371.3265,368.3582,373.482,369.7513,377.0358Z" transform="translate(-37.2872 -86.1848)"/><path class="cls-17" d="M365.4528,392.8727c1.3908,3.548,6.9069,1.3923,5.5138-2.1615C369.5758,387.1633,364.06,389.3189,365.4528,392.8727Z" transform="translate(-37.2872 -86.1848)"/><path class="cls-17" d="M403.1884,361.1408c1.3908,3.5479,6.907,1.3924,5.5139-2.1614C407.3115,355.4315,401.7953,357.5871,403.1884,361.1408Z" transform="translate(-37.2872 -86.1848)"/><path class="cls-17" d="M417.6305,358.0525c1.3908,3.5479,6.907,1.3923,5.5139-2.1615C421.7536,352.3432,416.2375,354.4987,417.6305,358.0525Z" transform="translate(-37.2872 -86.1848)"/><path class="cls-17" d="M412.8873,347.0465c1.3909,3.548,6.907,1.3924,5.5139-2.1614C417.01,341.3372,411.4942,343.4928,412.8873,347.0465Z" transform="translate(-37.2872 -86.1848)"/><path class="cls-17" d="M68.13,362.7773a2.8959,2.8959,0,0,0-.3582,1.3256c-.5794-.0527-1.1588-.0921-1.7382-.1247a10.8142,10.8142,0,0,1-6.8725,6.08c-.0126.7658-.0384,1.5249-.0776,2.2908h-.02a1.6039,1.6039,0,0,0-.7323.1739c-.1672-.719-.3411-1.4447-.5216-2.1637a10.7747,10.7747,0,0,1-7.66-1.6635c-.2861.2067-.5723.4067-.8651.6068a1.2035,1.2035,0,0,0-.6-.5188c.2-.2466.3791-.5.5519-.76a10.7714,10.7714,0,0,1-3.8092-6.775q-.8391-.099-1.6982-.178a1.73,1.73,0,0,0,.1395-.32,2.5389,2.5389,0,0,0,.0718-1.3519c.466-.1336.9254-.2606,1.3914-.381a10.6831,10.6831,0,0,1,1.4069-4.6893c-.4868-.6588-.9935-1.3175-1.52-1.9629a1.0487,1.0487,0,0,0,.5987-.5067c.5731.4189,1.1529.8312,1.726,1.2568a10.786,10.786,0,0,1,8.5592-4.2239,10.6529,10.6529,0,0,1,2.4575.2838c.2258-.5.4384-.9993.651-1.5056a2.613,2.613,0,0,0,1.2658.5847c-.086.4862-.1588.9724-.2316,1.4585a10.7745,10.7745,0,0,1,5.7592,5.6277q.5193-.18,1.0384-.3806a2.13,2.13,0,0,0,.5869.8584c-.3993.22-.792.447-1.1913.6671a10.7952,10.7952,0,0,1,.4827,3.1959,10.9768,10.9768,0,0,1-.3368,2.7039C67.0973,362.5187,67.6168,362.6514,68.13,362.7773Z" transform="translate(-37.2872 -86.1848)"/><path class="cls-18" d="M67.7714,364.1029a2.8952,2.8952,0,0,1,.3583-1.3255,3.0784,3.0784,0,1,1-.3648,1.452A.8126.8126,0,0,1,67.7714,364.1029Z" transform="translate(-37.2872 -86.1848)"/><path class="cls-18" d="M67.0429,354.9608a2.1872,2.1872,0,0,1-.1272-.7257,2.1016,2.1016,0,1,1,.1272.7257Z" transform="translate(-37.2872 -86.1848)"/><path class="cls-18" d="M60.4769,348.2552a2.6076,2.6076,0,1,1,.42.0329A2.9034,2.9034,0,0,1,60.4769,348.2552Z" transform="translate(-37.2872 -86.1848)"/><path class="cls-18" d="M59.438,361.1548a1.738,1.738,0,1,1-1.73,1.74A1.7392,1.7392,0,0,1,59.438,361.1548Z" transform="translate(-37.2872 -86.1848)"/><path class="cls-18" d="M59.0832,372.349a1.6481,1.6481,0,1,1-1.6631,1.6465,1.629,1.629,0,0,1,.9108-1.4726,1.6049,1.6049,0,0,1,.7323-.1739Z" transform="translate(-37.2872 -86.1848)"/><path class="cls-18" d="M52.0988,353.7442a4.4582,4.4582,0,1,1-4.457,4.4594A4.45,4.45,0,0,1,52.0988,353.7442Z" transform="translate(-37.2872 -86.1848)"/><path class="cls-18" d="M53.8617,364.9961a1.4184,1.4184,0,1,1-1.417,1.42A1.421,1.421,0,0,1,53.8617,364.9961Z" transform="translate(-37.2872 -86.1848)"/><path class="cls-18" d="M48.6848,368.7837a1.2046,1.2046,0,0,1,.6.5188,1.2332,1.2332,0,0,1,.2.679,1.3019,1.3019,0,1,1-1.3065-1.3038A1.275,1.275,0,0,1,48.6848,368.7837Z" transform="translate(-37.2872 -86.1848)"/><path class="cls-18" d="M45.8174,351.8594a1.0479,1.0479,0,0,1-.5988.5067.9344.9344,0,0,1-.36.067,1.1088,1.1088,0,1,1,1.1043-1.1066A1.0486,1.0486,0,0,1,45.8174,351.8594Z" transform="translate(-37.2872 -86.1848)"/><path class="cls-18" d="M43.9406,359.3994a2.5386,2.5386,0,0,1-.0718,1.3518,1.7267,1.7267,0,0,1-.1395.32,2.5263,2.5263,0,1,1,.2113-1.6716Z" transform="translate(-37.2872 -86.1848)"/><path class="cls-17" d="M55.7835,381.96a5.137,5.137,0,1,1-5.1422-5.1318A5.136,5.136,0,0,1,55.7835,381.96Z" transform="translate(-37.2872 -86.1848)"/><path class="cls-18" d="M51.7508,382.24a1.2129,1.2129,0,1,1-1.2146,1.2142A1.215,1.215,0,0,1,51.7508,382.24Z" transform="translate(-37.2872 -86.1848)"/><path class="cls-18" d="M48.9061,378.4605a1.8134,1.8134,0,1,1-1.8116,1.8153A1.8123,1.8123,0,0,1,48.9061,378.4605Z" transform="translate(-37.2872 -86.1848)"/><path class="cls-18" d="M48.8931,383.0912a.789.789,0,1,1-.7881.79A.789.789,0,0,1,48.8931,383.0912Z" transform="translate(-37.2872 -86.1848)"/><path class="cls-9" d="M260.7444,211.4114a4.7685,4.7685,0,0,0,6.0227,4.4236.6255.6255,0,0,0-.3323-1.2053,3.5064,3.5064,0,0,1-4.44-3.2183c-.048-.7993-1.2983-.8048-1.25,0Z" transform="translate(-37.2872 -86.1848)"/><path class="cls-9" d="M284.6371,178.18a16.82,16.82,0,0,0-3.8985,5.9261c-.67,1.7315-1.679,4.6139-.2819,6.2468.7129.8331,1.78.99,2.7131,1.4567a2.3168,2.3168,0,0,1,1.2406,3.1143c-.6761,1.2-2.46,1.0459-3.62.79a3.342,3.342,0,0,1-2.6071-1.8409c-.2828-.7447-1.4916-.4218-1.2053.3323.8566,2.2561,3.4694,3.0415,5.7037,2.9a3.2022,3.2022,0,0,0,2.7755-4.8155,5.0733,5.0733,0,0,0-2.8964-2.0605c-.695-.2762-1.2951-.5956-1.473-1.3872a4.9153,4.9153,0,0,1,.1484-2.04,15.4038,15.4038,0,0,1,4.285-7.7375c.5741-.5653-.31-1.449-.8839-.8839Z" transform="translate(-37.2872 -86.1848)"/><path class="cls-9" d="M239.2894,160.7113a5.2641,5.2641,0,0,1,2.9838-.0637,1.53,1.53,0,0,1,1.0258,1.7441l.4365-.4365c-2.443.5178-5.5908.7246-6.87,3.272a2.7838,2.7838,0,0,0,.305,3.2709,1.8049,1.8049,0,0,0,2.7793-.3807c.3571-.7181-.7208-1.352-1.0793-.6309a.4589.4589,0,0,1-.5171.2472.7319.7319,0,0,1-.5789-.59,2.2641,2.2641,0,0,1,.7576-2.0906c1.435-1.434,3.667-1.4963,5.5354-1.8923a.6269.6269,0,0,0,.4366-.4365,2.7069,2.7069,0,0,0-1.3954-3.0508c-1.2657-.7232-2.8023-.4425-4.1519-.1673-.7876.1606-.4543,1.3657.3323,1.2054Z" transform="translate(-37.2872 -86.1848)"/></svg>